<?xml version="1.0" encoding="UTF-8" standalone="no"?>
<svg
   version="1.1"
   width="200"
   height="300"
   id="svg20"
   sodipodi:docname="9.svg"
   inkscape:version="1.2.1 (9c6d41e410, 2022-07-14)"
   xmlns:inkscape="http://www.inkscape.org/namespaces/inkscape"
   xmlns:sodipodi="http://sodipodi.sourceforge.net/DTD/sodipodi-0.dtd"
   xmlns="http://www.w3.org/2000/svg"
   xmlns:svg="http://www.w3.org/2000/svg">
  <defs
     id="defs24" />
  <sodipodi:namedview
     id="namedview22"
     pagecolor="#ffffff"
     bordercolor="#000000"
     borderopacity="0.25"
     inkscape:showpageshadow="2"
     inkscape:pageopacity="0.0"
     inkscape:pagecheckerboard="0"
     inkscape:deskcolor="#d1d1d1"
     showgrid="false"
     inkscape:zoom="2.6066667"
     inkscape:cx="100.31969"
     inkscape:cy="150"
     inkscape:window-width="2560"
     inkscape:window-height="1011"
     inkscape:window-x="0"
     inkscape:window-y="0"
     inkscape:window-maximized="1"
     inkscape:current-layer="svg20" />
  <path
     d="M75,125 l25,25 l25,-25 l-25,-25"
     class="fill_red"
     id="path2"
     style="fill:#fe2d53;fill-opacity:1" />
  <path
     d="M25,125 l25,25 l25,-25 l-25,-25"
     class="fill_red"
     id="path4"
     style="fill:#fe2d53;fill-opacity:1" />
  <path
     d="M125,125 l25,25 l25,-25 l-25,-25"
     class="fill_red"
     id="path6"
     style="fill:#fe2d53;fill-opacity:1" />
  <path
     d="M75,175 l25,25 l25,-25 l-25,-25"
     class="fill_red"
     id="path8"
     style="fill:#fe2d53;fill-opacity:1" />
  <path
     d="M25,175 l25,25 l25,-25 l-25,-25"
     class="fill_red"
     id="path10"
     style="fill:#fe2d53;fill-opacity:1" />
  <path
     d="M125,175 l25,25 l25,-25 l-25,-25"
     class="fill_red"
     id="path12"
     style="fill:#fe2d53;fill-opacity:1" />
  <path
     d="M75,225 l25,25 l25,-25 l-25,-25"
     class="fill_red"
     id="path14"
     style="fill:#fe2d53;fill-opacity:1" />
  <path
     d="M25,225 l25,25 l25,-25 l-25,-25"
     class="fill_red"
     id="path16"
     style="fill:#fe2d53;fill-opacity:1" />
  <path
     d="M125,225 l25,25 l25,-25 l-25,-25"
     class="fill_red"
     id="path18"
     style="fill:#fe2d53;fill-opacity:1" />
</svg>
