<svg width="896" height="494" viewBox="0 0 896 494" fill="none" xmlns="http://www.w3.org/2000/svg">
<g clip-path="url(#clip0_16_2)">
<path d="M362 224V178L405 224H362Z" fill="#333333" fill-opacity="0.1"/>
<path d="M362 270V224L405 270H362Z" fill="#333333" fill-opacity="0.1"/>
<path d="M405 224V178L448 224H405Z" fill="#333333" fill-opacity="0.1"/>
<path d="M405 270V224L448 270H405Z" fill="#333333" fill-opacity="0.1"/>
<path d="M448 316V270L491 316H448Z" fill="#333333" fill-opacity="0.1"/>
<path d="M448 224V178L491 224H448Z" fill="#333333" fill-opacity="0.1"/>
<path d="M448 178V132L491 178H448Z" fill="#333333" fill-opacity="0.1"/>
<path d="M491 224V178L534 224H491Z" fill="#333333" fill-opacity="0.1"/>
<path d="M319 316V270L362 316H319Z" fill="#333333" fill-opacity="0.1"/>
<path d="M362 316V270L405 316H362Z" fill="#333333" fill-opacity="0.1"/>
<path d="M362 362V316L405 362H362Z" fill="#333333" fill-opacity="0.1"/>
<path d="M448 362V316L491 362H448Z" fill="#333333" fill-opacity="0.1"/>
<path d="M405 316V270L448 316H405Z" fill="#333333" fill-opacity="0.1"/>
<path d="M448 270V224L491 270H448Z" fill="#333333" fill-opacity="0.1"/>
<path d="M491 316V270L534 316H491Z" fill="#333333" fill-opacity="0.1"/>
<path d="M319 224V178L362 224H319Z" fill="#333333" fill-opacity="0.1"/>
<path d="M362 178V132L405 178H362Z" fill="#333333" fill-opacity="0.1"/>
<path d="M319 362V316L362 362H319Z" fill="#333333" fill-opacity="0.1"/>
<path d="M491 362V316L534 362H491Z" fill="#333333" fill-opacity="0.1"/>
<path d="M405 224V178L448 224H405Z" fill="#666666" fill-opacity="0.1"/>
<path d="M405 270V224L448 270H405Z" fill="#666666" fill-opacity="0.1"/>
<path d="M448 224V178L491 224H448Z" fill="#666666" fill-opacity="0.1"/>
<path d="M448 270V224L491 270H448Z" fill="#666666" fill-opacity="0.1"/>
<path d="M534 270V224L577 270H534Z" fill="#666666" fill-opacity="0.1"/>
<path d="M491 316V270L534 316H491Z" fill="#666666" fill-opacity="0.1"/>
<path d="M491 224V178L534 224H491Z" fill="#666666" fill-opacity="0.1"/>
<path d="M491 178V132L534 178H491Z" fill="#666666" fill-opacity="0.1"/>
<path d="M534 224V178L577 224H534Z" fill="#666666" fill-opacity="0.1"/>
<path d="M362 316V270L405 316H362Z" fill="#666666" fill-opacity="0.1"/>
<path d="M405 316V270L448 316H405Z" fill="#666666" fill-opacity="0.1"/>
<path d="M405 362V316L448 362H405Z" fill="#666666" fill-opacity="0.1"/>
<path d="M491 362V316L534 362H491Z" fill="#666666" fill-opacity="0.1"/>
<path d="M448 316V270L491 316H448Z" fill="#666666" fill-opacity="0.1"/>
<path d="M491 270V224L534 270H491Z" fill="#666666" fill-opacity="0.1"/>
<path d="M534 316V270L577 316H534Z" fill="#666666" fill-opacity="0.1"/>
<path d="M534 270V224L577 270H534Z" fill="#666666" fill-opacity="0.1"/>
<path d="M319 270V224L362 270H319Z" fill="#666666" fill-opacity="0.1"/>
<path d="M362 224V178L405 224H362Z" fill="#666666" fill-opacity="0.1"/>
<path d="M405 178V132L448 178H405Z" fill="#666666" fill-opacity="0.1"/>
<path d="M362 362V316L405 362H362Z" fill="#666666" fill-opacity="0.1"/>
<path d="M534 362V316L577 362H534Z" fill="#666666" fill-opacity="0.1"/>
<path d="M147 40V-6L190 40H147Z" fill="#333333" fill-opacity="0.1"/>
<path d="M147 86V40L190 86H147Z" fill="#333333" fill-opacity="0.1"/>
<path d="M190 40V-6L233 40H190Z" fill="#333333" fill-opacity="0.1"/>
<path d="M190 86V40L233 86H190Z" fill="#333333" fill-opacity="0.1"/>
<path d="M233 132V86L276 132H233Z" fill="#333333" fill-opacity="0.1"/>
<path d="M233 40V-6L276 40H233Z" fill="#333333" fill-opacity="0.1"/>
<path d="M276 40V-6L319 40H276Z" fill="#333333" fill-opacity="0.1"/>
<path d="M104 132V86L147 132H104Z" fill="#333333" fill-opacity="0.1"/>
<path d="M147 132V86L190 132H147Z" fill="#333333" fill-opacity="0.1"/>
<path d="M147 178V132L190 178H147Z" fill="#333333" fill-opacity="0.1"/>
<path d="M233 178V132L276 178H233Z" fill="#333333" fill-opacity="0.1"/>
<path d="M190 132V86L233 132H190Z" fill="#333333" fill-opacity="0.1"/>
<path d="M233 86V40L276 86H233Z" fill="#333333" fill-opacity="0.1"/>
<path d="M276 132V86L319 132H276Z" fill="#333333" fill-opacity="0.1"/>
<path d="M104 40V-6L147 40H104Z" fill="#333333" fill-opacity="0.1"/>
<path d="M104 178V132L147 178H104Z" fill="#333333" fill-opacity="0.1"/>
<path d="M276 178V132L319 178H276Z" fill="#333333" fill-opacity="0.1"/>
<path d="M190 40V-6L233 40H190Z" fill="#666666" fill-opacity="0.1"/>
<path d="M190 86V40L233 86H190Z" fill="#666666" fill-opacity="0.1"/>
<path d="M233 40V-6L276 40H233Z" fill="#666666" fill-opacity="0.1"/>
<path d="M233 86V40L276 86H233Z" fill="#666666" fill-opacity="0.1"/>
<path d="M319 86V40L362 86H319Z" fill="#666666" fill-opacity="0.1"/>
<path d="M276 132V86L319 132H276Z" fill="#666666" fill-opacity="0.1"/>
<path d="M276 40V-6L319 40H276Z" fill="#666666" fill-opacity="0.1"/>
<path d="M319 40V-6L362 40H319Z" fill="#666666" fill-opacity="0.1"/>
<path d="M147 132V86L190 132H147Z" fill="#666666" fill-opacity="0.1"/>
<path d="M190 132V86L233 132H190Z" fill="#666666" fill-opacity="0.1"/>
<path d="M190 178V132L233 178H190Z" fill="#666666" fill-opacity="0.1"/>
<path d="M276 178V132L319 178H276Z" fill="#666666" fill-opacity="0.1"/>
<path d="M233 132V86L276 132H233Z" fill="#666666" fill-opacity="0.1"/>
<path d="M276 86V40L319 86H276Z" fill="#666666" fill-opacity="0.1"/>
<path d="M319 132V86L362 132H319Z" fill="#666666" fill-opacity="0.1"/>
<path d="M319 86V40L362 86H319Z" fill="#666666" fill-opacity="0.1"/>
<path d="M104 86V40L147 86H104Z" fill="#666666" fill-opacity="0.1"/>
<path d="M147 40V-6L190 40H147Z" fill="#666666" fill-opacity="0.1"/>
<path d="M147 178V132L190 178H147Z" fill="#666666" fill-opacity="0.1"/>
<path d="M319 178V132L362 178H319Z" fill="#666666" fill-opacity="0.1"/>
<path d="M577 40V-6L620 40H577Z" fill="#333333" fill-opacity="0.1"/>
<path d="M577 86V40L620 86H577Z" fill="#333333" fill-opacity="0.1"/>
<path d="M620 40V-6L663 40H620Z" fill="#333333" fill-opacity="0.1"/>
<path d="M620 86V40L663 86H620Z" fill="#333333" fill-opacity="0.1"/>
<path d="M663 132V86L706 132H663Z" fill="#333333" fill-opacity="0.1"/>
<path d="M663 40V-6L706 40H663Z" fill="#333333" fill-opacity="0.1"/>
<path d="M706 40V-6L749 40H706Z" fill="#333333" fill-opacity="0.1"/>
<path d="M534 132V86L577 132H534Z" fill="#333333" fill-opacity="0.1"/>
<path d="M577 132V86L620 132H577Z" fill="#333333" fill-opacity="0.1"/>
<path d="M577 178V132L620 178H577Z" fill="#333333" fill-opacity="0.1"/>
<path d="M663 178V132L706 178H663Z" fill="#333333" fill-opacity="0.1"/>
<path d="M620 132V86L663 132H620Z" fill="#333333" fill-opacity="0.1"/>
<path d="M663 86V40L706 86H663Z" fill="#333333" fill-opacity="0.1"/>
<path d="M706 132V86L749 132H706Z" fill="#333333" fill-opacity="0.1"/>
<path d="M534 40V-6L577 40H534Z" fill="#333333" fill-opacity="0.1"/>
<path d="M534 178V132L577 178H534Z" fill="#333333" fill-opacity="0.1"/>
<path d="M706 178V132L749 178H706Z" fill="#333333" fill-opacity="0.1"/>
<path d="M620 40V-6L663 40H620Z" fill="#666666" fill-opacity="0.1"/>
<path d="M620 86V40L663 86H620Z" fill="#666666" fill-opacity="0.1"/>
<path d="M663 40V-6L706 40H663Z" fill="#666666" fill-opacity="0.1"/>
<path d="M663 86V40L706 86H663Z" fill="#666666" fill-opacity="0.1"/>
<path d="M749 86V40L792 86H749Z" fill="#666666" fill-opacity="0.1"/>
<path d="M706 132V86L749 132H706Z" fill="#666666" fill-opacity="0.1"/>
<path d="M706 40V-6L749 40H706Z" fill="#666666" fill-opacity="0.1"/>
<path d="M749 40V-6L792 40H749Z" fill="#666666" fill-opacity="0.1"/>
<path d="M577 132V86L620 132H577Z" fill="#666666" fill-opacity="0.1"/>
<path d="M620 132V86L663 132H620Z" fill="#666666" fill-opacity="0.1"/>
<path d="M620 178V132L663 178H620Z" fill="#666666" fill-opacity="0.1"/>
<path d="M706 178V132L749 178H706Z" fill="#666666" fill-opacity="0.1"/>
<path d="M663 132V86L706 132H663Z" fill="#666666" fill-opacity="0.1"/>
<path d="M706 86V40L749 86H706Z" fill="#666666" fill-opacity="0.1"/>
<path d="M749 132V86L792 132H749Z" fill="#666666" fill-opacity="0.1"/>
<path d="M749 86V40L792 86H749Z" fill="#666666" fill-opacity="0.1"/>
<path d="M534 86V40L577 86H534Z" fill="#666666" fill-opacity="0.1"/>
<path d="M577 40V-6L620 40H577Z" fill="#666666" fill-opacity="0.1"/>
<path d="M577 178V132L620 178H577Z" fill="#666666" fill-opacity="0.1"/>
<path d="M749 178V132L792 178H749Z" fill="#666666" fill-opacity="0.1"/>
<path d="M104 270V224L147 270H104Z" fill="#333333" fill-opacity="0.1"/>
<path d="M104 316V270L147 316H104Z" fill="#333333" fill-opacity="0.1"/>
<path d="M147 270V224L190 270H147Z" fill="#333333" fill-opacity="0.1"/>
<path d="M147 316V270L190 316H147Z" fill="#333333" fill-opacity="0.1"/>
<path d="M190 362V316L233 362H190Z" fill="#333333" fill-opacity="0.1"/>
<path d="M190 270V224L233 270H190Z" fill="#333333" fill-opacity="0.1"/>
<path d="M190 224V178L233 224H190Z" fill="#333333" fill-opacity="0.1"/>
<path d="M233 270V224L276 270H233Z" fill="#333333" fill-opacity="0.1"/>
<path d="M61 362V316L104 362H61Z" fill="#333333" fill-opacity="0.1"/>
<path d="M104 362V316L147 362H104Z" fill="#333333" fill-opacity="0.1"/>
<path d="M104 408V362L147 408H104Z" fill="#333333" fill-opacity="0.1"/>
<path d="M190 408V362L233 408H190Z" fill="#333333" fill-opacity="0.1"/>
<path d="M147 362V316L190 362H147Z" fill="#333333" fill-opacity="0.1"/>
<path d="M190 316V270L233 316H190Z" fill="#333333" fill-opacity="0.1"/>
<path d="M233 362V316L276 362H233Z" fill="#333333" fill-opacity="0.1"/>
<path d="M61 270V224L104 270H61Z" fill="#333333" fill-opacity="0.1"/>
<path d="M104 224V178L147 224H104Z" fill="#333333" fill-opacity="0.1"/>
<path d="M61 408V362L104 408H61Z" fill="#333333" fill-opacity="0.1"/>
<path d="M233 408V362L276 408H233Z" fill="#333333" fill-opacity="0.1"/>
<path d="M147 270V224L190 270H147Z" fill="#666666" fill-opacity="0.1"/>
<path d="M147 316V270L190 316H147Z" fill="#666666" fill-opacity="0.1"/>
<path d="M190 270V224L233 270H190Z" fill="#666666" fill-opacity="0.1"/>
<path d="M190 316V270L233 316H190Z" fill="#666666" fill-opacity="0.1"/>
<path d="M276 316V270L319 316H276Z" fill="#666666" fill-opacity="0.1"/>
<path d="M233 362V316L276 362H233Z" fill="#666666" fill-opacity="0.1"/>
<path d="M233 270V224L276 270H233Z" fill="#666666" fill-opacity="0.1"/>
<path d="M233 224V178L276 224H233Z" fill="#666666" fill-opacity="0.1"/>
<path d="M276 270V224L319 270H276Z" fill="#666666" fill-opacity="0.1"/>
<path d="M104 362V316L147 362H104Z" fill="#666666" fill-opacity="0.1"/>
<path d="M147 362V316L190 362H147Z" fill="#666666" fill-opacity="0.1"/>
<path d="M147 408V362L190 408H147Z" fill="#666666" fill-opacity="0.1"/>
<path d="M233 408V362L276 408H233Z" fill="#666666" fill-opacity="0.1"/>
<path d="M190 362V316L233 362H190Z" fill="#666666" fill-opacity="0.1"/>
<path d="M233 316V270L276 316H233Z" fill="#666666" fill-opacity="0.1"/>
<path d="M276 362V316L319 362H276Z" fill="#666666" fill-opacity="0.1"/>
<path d="M276 316V270L319 316H276Z" fill="#666666" fill-opacity="0.1"/>
<path d="M61 316V270L104 316H61Z" fill="#666666" fill-opacity="0.1"/>
<path d="M104 270V224L147 270H104Z" fill="#666666" fill-opacity="0.1"/>
<path d="M147 224V178L190 224H147Z" fill="#666666" fill-opacity="0.1"/>
<path d="M104 408V362L147 408H104Z" fill="#666666" fill-opacity="0.1"/>
<path d="M276 408V362L319 408H276Z" fill="#666666" fill-opacity="0.1"/>
<path d="M620 270V224L663 270H620Z" fill="#333333" fill-opacity="0.1"/>
<path d="M620 316V270L663 316H620Z" fill="#333333" fill-opacity="0.1"/>
<path d="M663 270V224L706 270H663Z" fill="#333333" fill-opacity="0.1"/>
<path d="M663 316V270L706 316H663Z" fill="#333333" fill-opacity="0.1"/>
<path d="M706 362V316L749 362H706Z" fill="#333333" fill-opacity="0.1"/>
<path d="M706 270V224L749 270H706Z" fill="#333333" fill-opacity="0.1"/>
<path d="M706 224V178L749 224H706Z" fill="#333333" fill-opacity="0.1"/>
<path d="M749 270V224L792 270H749Z" fill="#333333" fill-opacity="0.1"/>
<path d="M577 362V316L620 362H577Z" fill="#333333" fill-opacity="0.1"/>
<path d="M620 362V316L663 362H620Z" fill="#333333" fill-opacity="0.1"/>
<path d="M620 408V362L663 408H620Z" fill="#333333" fill-opacity="0.1"/>
<path d="M706 408V362L749 408H706Z" fill="#333333" fill-opacity="0.1"/>
<path d="M663 362V316L706 362H663Z" fill="#333333" fill-opacity="0.1"/>
<path d="M706 316V270L749 316H706Z" fill="#333333" fill-opacity="0.1"/>
<path d="M749 362V316L792 362H749Z" fill="#333333" fill-opacity="0.1"/>
<path d="M577 270V224L620 270H577Z" fill="#333333" fill-opacity="0.1"/>
<path d="M620 224V178L663 224H620Z" fill="#333333" fill-opacity="0.1"/>
<path d="M577 408V362L620 408H577Z" fill="#333333" fill-opacity="0.1"/>
<path d="M749 408V362L792 408H749Z" fill="#333333" fill-opacity="0.1"/>
<path d="M663 270V224L706 270H663Z" fill="#666666" fill-opacity="0.1"/>
<path d="M663 316V270L706 316H663Z" fill="#666666" fill-opacity="0.1"/>
<path d="M706 270V224L749 270H706Z" fill="#666666" fill-opacity="0.1"/>
<path d="M706 316V270L749 316H706Z" fill="#666666" fill-opacity="0.1"/>
<path d="M792 316V270L835 316H792Z" fill="#666666" fill-opacity="0.1"/>
<path d="M749 362V316L792 362H749Z" fill="#666666" fill-opacity="0.1"/>
<path d="M749 270V224L792 270H749Z" fill="#666666" fill-opacity="0.1"/>
<path d="M749 224V178L792 224H749Z" fill="#666666" fill-opacity="0.1"/>
<path d="M792 270V224L835 270H792Z" fill="#666666" fill-opacity="0.1"/>
<path d="M620 362V316L663 362H620Z" fill="#666666" fill-opacity="0.1"/>
<path d="M663 362V316L706 362H663Z" fill="#666666" fill-opacity="0.1"/>
<path d="M663 408V362L706 408H663Z" fill="#666666" fill-opacity="0.1"/>
<path d="M749 408V362L792 408H749Z" fill="#666666" fill-opacity="0.1"/>
<path d="M706 362V316L749 362H706Z" fill="#666666" fill-opacity="0.1"/>
<path d="M749 316V270L792 316H749Z" fill="#666666" fill-opacity="0.1"/>
<path d="M792 362V316L835 362H792Z" fill="#666666" fill-opacity="0.1"/>
<path d="M792 316V270L835 316H792Z" fill="#666666" fill-opacity="0.1"/>
<path d="M577 316V270L620 316H577Z" fill="#666666" fill-opacity="0.1"/>
<path d="M620 270V224L663 270H620Z" fill="#666666" fill-opacity="0.1"/>
<path d="M663 224V178L706 224H663Z" fill="#666666" fill-opacity="0.1"/>
<path d="M620 408V362L663 408H620Z" fill="#666666" fill-opacity="0.1"/>
<path d="M792 408V362L835 408H792Z" fill="#666666" fill-opacity="0.1"/>
<path d="M104 500V454L147 500H104Z" fill="#333333" fill-opacity="0.1"/>
<path d="M147 500V454L190 500H147Z" fill="#333333" fill-opacity="0.1"/>
<path d="M190 500V454L233 500H190Z" fill="#333333" fill-opacity="0.1"/>
<path d="M190 454V408L233 454H190Z" fill="#333333" fill-opacity="0.1"/>
<path d="M233 500V454L276 500H233Z" fill="#333333" fill-opacity="0.1"/>
<path d="M61 500V454L104 500H61Z" fill="#333333" fill-opacity="0.1"/>
<path d="M104 454V408L147 454H104Z" fill="#333333" fill-opacity="0.1"/>
<path d="M147 500V454L190 500H147Z" fill="#666666" fill-opacity="0.1"/>
<path d="M190 500V454L233 500H190Z" fill="#666666" fill-opacity="0.1"/>
<path d="M233 500V454L276 500H233Z" fill="#666666" fill-opacity="0.1"/>
<path d="M233 454V408L276 454H233Z" fill="#666666" fill-opacity="0.1"/>
<path d="M276 500V454L319 500H276Z" fill="#666666" fill-opacity="0.1"/>
<path d="M104 500V454L147 500H104Z" fill="#666666" fill-opacity="0.1"/>
<path d="M147 454V408L190 454H147Z" fill="#666666" fill-opacity="0.1"/>
<path d="M620 500V454L663 500H620Z" fill="#333333" fill-opacity="0.1"/>
<path d="M663 500V454L706 500H663Z" fill="#333333" fill-opacity="0.1"/>
<path d="M706 500V454L749 500H706Z" fill="#333333" fill-opacity="0.1"/>
<path d="M706 454V408L749 454H706Z" fill="#333333" fill-opacity="0.1"/>
<path d="M749 500V454L792 500H749Z" fill="#333333" fill-opacity="0.1"/>
<path d="M577 500V454L620 500H577Z" fill="#333333" fill-opacity="0.1"/>
<path d="M620 454V408L663 454H620Z" fill="#333333" fill-opacity="0.1"/>
<path d="M663 500V454L706 500H663Z" fill="#666666" fill-opacity="0.1"/>
<path d="M706 500V454L749 500H706Z" fill="#666666" fill-opacity="0.1"/>
<path d="M749 500V454L792 500H749Z" fill="#666666" fill-opacity="0.1"/>
<path d="M749 454V408L792 454H749Z" fill="#666666" fill-opacity="0.1"/>
<path d="M792 500V454L835 500H792Z" fill="#666666" fill-opacity="0.1"/>
<path d="M620 500V454L663 500H620Z" fill="#666666" fill-opacity="0.1"/>
<path d="M663 454V408L706 454H663Z" fill="#666666" fill-opacity="0.1"/>
</g>
<defs>
<clipPath id="clip0_16_2">
<rect width="896" height="494" fill="white"/>
</clipPath>
</defs>
</svg>
