<?xml version="1.0" encoding="UTF-8" standalone="no"?>
<svg
   version="1.1"
   width="200"
   height="300"
   id="svg32"
   sodipodi:docname="11.svg"
   inkscape:version="1.2.1 (9c6d41e410, 2022-07-14)"
   xmlns:inkscape="http://www.inkscape.org/namespaces/inkscape"
   xmlns:sodipodi="http://sodipodi.sourceforge.net/DTD/sodipodi-0.dtd"
   xmlns="http://www.w3.org/2000/svg"
   xmlns:svg="http://www.w3.org/2000/svg">
  <defs
     id="defs36" />
  <sodipodi:namedview
     id="namedview34"
     pagecolor="#ffffff"
     bordercolor="#000000"
     borderopacity="0.25"
     inkscape:showpageshadow="2"
     inkscape:pageopacity="0.0"
     inkscape:pagecheckerboard="0"
     inkscape:deskcolor="#d1d1d1"
     showgrid="false"
     inkscape:zoom="2.6066667"
     inkscape:cx="100.31969"
     inkscape:cy="166.8798"
     inkscape:window-width="2560"
     inkscape:window-height="1011"
     inkscape:window-x="0"
     inkscape:window-y="0"
     inkscape:window-maximized="1"
     inkscape:current-layer="svg32" />
  <!-- Head -->
  <path
     d="m 100,40 -75,75 a 45.069391,45.069391 0 1 0 75,50 45.069391,45.069391 0 1 0 75,-50"
     class="fill_black"
     id="path2" />
  <!-- Body -->
  <path
     d="m 20,300 v -50 a 15,15 0 0 1 15,-15 h 25 a 25,25 0 0 0 25,-25 v -50 h 30 v 50 a 25,25 0 0 0 25,25 h 25 a 15,15 0 0 1 15,15 v 50"
     class="fill_black"
     id="path4"
     style="fill:#000000" />
  <line
     x1="0"
     y1="210"
     x2="300"
     y2="210"
     stroke-width="2px"
     class="stroke_white"
     stroke-linecap="round"
     id="line6" />
  <line
     x1="0"
     y1="220"
     x2="300"
     y2="220"
     stroke-width="2px"
     class="stroke_white"
     stroke-linecap="round"
     id="line8" />
  <path
     d="m 95,210 a 5,5 0 1 0 10,0"
     stroke-width="0px"
     class="fill_white"
     id="path10"
     style="fill:#ffffff" />
  <!-- Face -->
  <path
     d="m 62.5,145 a 37.5,37.5 0 1 0 75,0 A 37.5,37.5 0 0 1 100,107.5 37.5,37.5 0 0 1 62.5,145"
     class="fill_white"
     id="path12"
     style="fill:#ffffff" />
  <!-- Eyes -->
  <line
     x1="70"
     y1="150"
     x2="90"
     y2="150"
     stroke-width="2px"
     class="stroke_black"
     stroke-linecap="round"
     id="line14" />
  <line
     x1="110"
     y1="150"
     x2="130"
     y2="150"
     stroke-width="2px"
     class="stroke_black"
     stroke-linecap="round"
     id="line16" />
  <path
     d="m 75,150 a 5,5 0 1 0 10,0"
     stroke-width="2px"
     class="stroke_black fill_black"
     stroke-linecap="butt"
     id="path18" />
  <path
     d="m 115,150 a 5,5 0 1 0 10,0"
     stroke-width="2px"
     class="stroke_black fill_black"
     stroke-linecap="butt"
     id="path20" />
  <circle
     cx="90"
     cy="140"
     r="3"
     class="fill_grey"
     id="circle22"
     style="fill:#999999" />
  <circle
     cx="110"
     cy="140"
     r="3"
     class="fill_grey"
     id="circle24"
     style="fill:#999999" />
  <!-- nose -->
  <path
     d="m 95,160 a 5,5 0 1 0 10,0"
     stroke-width="0px"
     class="fill_grey"
     id="path26"
     style="fill:#999999" />
  <!-- mouth -->
  <path
     d="m 95,170 a 5,5 0 1 0 10,0"
     stroke-width="0px"
     class="fill_black"
     id="path28" />
  <!-- dot -->
  <circle
     cx="100"
     cy="90"
     r="5"
     class="fill_white"
     id="circle30"
     style="fill:#ffffff" />
</svg>
