<svg width="16" height="16" viewBox="0 0 16 16" fill="none" xmlns="http://www.w3.org/2000/svg">
<g clip-path="url(#clip0_9_54)">
<g clip-path="url(#clip1_9_54)">
<path d="M4 -6.40005e-06C2.35547 -6.40005e-06 1 1.35546 1 2.99999V13C1 14.6445 2.35547 16 4 16H7C7.55078 16 8 15.5508 8 15C8 14.4492 7.55078 14 7 14H4C3.42969 14 3 13.5703 3 13V2.99999C3 2.42968 3.42969 1.99999 4 1.99999C4 1.99999 9.5 1.99999 12 1.99999C13 1.99999 13 2.99999 13 2.99999V5.99999C13 6.55077 13.4492 6.99999 14 6.99999C14.5508 6.99999 15 6.55077 15 5.99999V4.99999C15 3.49999 15 -6.4373e-06 15 2.99999C15 2.99999 15 -1.14888e-05 12 -1.14888e-05C11 -1.14888e-05 11 -1.14888e-05 11 -1.14888e-05C10.8125 -0.187511 10.2656 -6.40005e-06 10 -6.40005e-06H4ZM11 7.99999V11H8V13H11V16H13V13H16V11H13V7.99999H11Z" fill="#2E3436"/>
</g>
</g>
<defs>
<clipPath id="clip0_9_54">
<rect width="16" height="16" fill="white"/>
</clipPath>
<clipPath id="clip1_9_54">
<rect width="16" height="16" fill="white"/>
</clipPath>
</defs>
</svg>
