<svg width="16" height="16" viewBox="0 0 16 16" fill="none" xmlns="http://www.w3.org/2000/svg">
<path d="M12 3C12 4.10457 11.1046 5 10 5C8.89543 5 8 4.10457 8 3C8 1.89543 8.89543 1 10 1C11.1046 1 12 1.89543 12 3Z" fill="black"/>
<path fill-rule="evenodd" clip-rule="evenodd" d="M6.652 9.46999C6.93658 9.01467 7.52994 8.86535 7.99614 9.13175L11.4961 11.1317C11.8077 11.3098 12 11.6411 12 12V15C12 15.5523 11.5523 16 11 16C10.4477 16 10 15.5523 10 15V12.5803L7.83851 11.3452L5.848 14.53C5.66526 14.8224 5.34479 15 5 15H2C1.44772 15 1 14.5523 1 14C1 13.4477 1.44772 13 2 13H4.44575L6.652 9.46999Z" fill="black"/>
<path fill-rule="evenodd" clip-rule="evenodd" d="M3.7 5.39999C3.88885 5.14819 4.18524 4.99999 4.5 4.99999H8.5C8.68742 4.99999 8.87107 5.05266 9.03 5.15199L12.3554 7.23037L13.7929 5.79289C14.1834 5.40236 14.8166 5.40236 15.2071 5.79289C15.5976 6.18341 15.5976 6.81657 15.2071 7.2071L13.2071 9.2071C12.8778 9.53637 12.3649 9.59479 11.97 9.34799L8.2132 6.99999H5L3.8 8.59999C3.46863 9.04182 2.84183 9.13136 2.4 8.79999C1.95817 8.46862 1.86863 7.84182 2.2 7.39999L3.7 5.39999Z" fill="black"/>
<path fill-rule="evenodd" clip-rule="evenodd" d="M8.74254 5.02985C9.27833 5.1638 9.60409 5.70673 9.47014 6.24253L8.47014 10.2425C8.33619 10.7783 7.79326 11.1041 7.25746 10.9701C6.72167 10.8362 6.39591 10.2933 6.52986 9.75746L7.52986 5.75746C7.66381 5.22166 8.20674 4.8959 8.74254 5.02985Z" fill="black"/>
</svg>
